Coordinates
version=1
nRows=16
nColumns=36
inDegrees=yes

Units are S.I. units (second, meters, Newtons, ...)
If the header above contains a line with 'inDegrees', this indicates whether rotational values are in degrees (yes) or radians (no).

endheader
time	pelvis_tilt	pelvis_list	pelvis_rotation	pelvis_tx	pelvis_ty	pelvis_tz	hip_flexion_r	hip_adduction_r	hip_rotation_r	knee_angle_r	knee_angle_r_beta	ankle_angle_r	subtalar_angle_r	mtp_angle_r	hip_flexion_l	hip_adduction_l	hip_rotation_l	knee_angle_l	knee_angle_l_beta	ankle_angle_l	subtalar_angle_l	mtp_angle_l	lumbar_extension	lumbar_bending	lumbar_rotation	arm_flex_r	arm_add_r	arm_rot_r	elbow_flex_r	pro_sup_r	arm_flex_l	arm_add_l	arm_rot_l	elbow_flex_l	pro_sup_l
      0.92000000	     -7.54567300	      0.51204373	      2.37917378	     -0.66807879	      1.42948188	     -0.57641266	     14.87822448	     -1.51994579	     -2.24380429	     27.96994905	      0.48816770	    -21.47693784	     -3.17814683	     -5.58712612	     24.46152134	     -2.14116979	     -7.09695158	     39.30500327	      0.68600172	    -33.34676147	    -14.75466984	     -5.58712612	    -19.45562830	     -2.78193084	     -6.57751269	      3.32689324	    -11.76000521	    -17.12489742	    110.57783283	    102.92090387	      2.00172323	    -16.00150891	      4.64842700	    109.81343333	    111.44535007
      0.93000000	     -7.74327472	      0.42750820	      2.35345799	     -0.66092821	      1.43050362	     -0.57673545	     16.25057252	     -1.74370271	     -2.65567174	     26.78716398	      0.46752421	    -21.12402243	     -3.33026768	     -5.59596250	     25.46714260	     -2.40015770	     -7.49655305	     37.85357892	      0.66066959	    -33.15684022	    -14.38234312	     -5.59596250	    -20.39024585	     -2.68362745	     -6.60025448	      2.87550441	    -12.32039924	    -17.00096127	    110.75819251	    102.97304774	      1.93774519	    -16.28242150	      4.59283128	    110.06063152	    111.46490870
      0.94000000	     -7.85904639	      0.46232905	      2.23247104	     -0.65344944	      1.43064422	     -0.57699336	     17.44470006	     -2.04734536	     -2.91312800	     25.39595366	      0.44324301	    -21.10664719	     -3.62376105	     -5.64415642	     26.16220220	     -2.59340522	     -8.04180403	     36.07684886	      0.62965980	    -32.11191369	    -12.55234965	     -5.64415642	    -21.40987475	     -2.73119414	     -6.52432837	      2.23526206	    -13.09866581	    -16.78254940	    111.45169724	    103.19239148	      1.94163444	    -16.76638966	      4.56472628	    110.57602086	    111.55673860
      0.95000000	     -8.06598429	      0.46063182	      2.09000299	     -0.64556108	      1.42960031	     -0.57739871	     18.62373210	     -2.29762016	     -3.17504838	     23.77917820	      0.41502495	    -21.42665976	     -4.00757493	     -5.70358186	     26.83339956	     -2.80772013	     -8.65529954	     34.18034658	      0.59655959	    -30.69547190	    -11.24816797	     -5.70358186	    -22.17815558	     -2.73699225	     -6.38888486	      1.45842631	    -13.98599103	    -16.65374464	    112.24905064	    103.40860775	      1.87280848	    -17.27161252	      4.49359311	    111.20942449	    111.71794935
      0.96000000	     -8.33113760	      0.46756886	      1.88877784	     -0.63728289	      1.42742856	     -0.57771458	     19.83956336	     -2.52952473	     -3.35665716	     22.20071605	      0.38747559	    -21.73071829	     -4.06083903	     -5.73259701	     27.38700118	     -2.98101437	     -9.22056992	     32.02331625	      0.55891231	    -29.75394691	    -10.58806679	     -5.73259701	    -22.75118888	     -2.79289837	     -6.24249294	      0.60280969	    -15.02537746	    -16.52462597	    113.16755718	    103.56598294	      1.62423836	    -17.89412048	      4.27385698	    112.01557764	    111.84268290
      0.97000000	     -8.72178433	      0.42373956	      1.66784542	     -0.62854349	      1.42397773	     -0.57791462	     21.09338637	     -2.68778448	     -3.57860258	     20.54337038	      0.35854945	    -21.81911208	     -3.97740250	     -5.74384989	     27.98614597	     -3.22244690	     -9.81895655	     29.82404566	      0.52052779	    -29.00999865	    -10.25458307	     -5.74384989	    -23.00359545	     -2.88141290	     -6.06123141	     -0.33216624	    -16.10432762	    -16.53979784	    113.93144100	    103.67089022	      1.22150786	    -18.51452805	      3.97594987	    112.91276676	    111.92623010
      0.98000000	     -8.93146596	      0.47555364	      1.24378689	     -0.61931431	      1.41985151	     -0.57775263	     22.05772413	     -2.80856868	     -3.33842779	     18.76928867	      0.32758589	    -22.32665253	     -3.52446401	     -5.77445188	     28.14401101	     -3.48971543	    -10.64014456	     27.36967623	      0.47769097	    -28.22748431	     -9.12970012	     -5.77445188	    -23.47598226	     -3.12755397	     -5.69266968	     -1.32739426	    -17.19581815	    -16.78492059	    115.08422255	    103.84380587	      0.74340867	    -19.18719296	      3.43078846	    114.14782415	    111.92028224
      0.99000000	     -9.31410540	      0.46042629	      0.88771145	     -0.60963494	      1.41434998	     -0.57783513	     23.11806739	     -2.88932707	     -3.25736287	     17.03882687	      0.29738363	    -22.57033382	     -2.98906353	     -5.79963675	     28.44705379	     -3.76959789	    -11.29399616	     24.91297568	      0.43481345	    -28.05781659	     -8.39654971	     -5.79963675	    -23.57681338	     -3.26530106	     -5.36041878	     -2.49270473	    -18.36803140	    -17.15356372	    116.15984427	    103.99447763	      0.13294616	    -19.87698148	      2.79844719	    115.35452939	    111.90693792
      1.00000000	     -9.64416978	      0.47643273	      0.53602516	     -0.59943171	      1.40790315	     -0.57800190	     24.01551644	     -2.99477486	     -3.15460023	     15.32699383	      0.26750651	    -23.04101313	     -2.32849858	     -5.84098540	     28.57150683	     -4.02241267	    -12.04796336	     22.32050914	      0.38956638	    -28.54678850	     -7.69225266	     -5.84098540	    -23.61621711	     -3.44816269	     -5.00305652	     -3.82659727	    -19.54558332	    -17.80481761	    117.24149372	    104.22032309	     -0.44285864	    -20.64668524	      2.08177275	    116.59133902	    111.91735535
      1.01000000	    -10.17555992	      0.33700195	      0.25956629	     -0.58876499	      1.39993909	     -0.57819147	     25.08602586	     -2.95639718	     -3.31382561	     13.83922190	      0.24153999	    -23.27906660	     -1.95534147	     -5.85086156	     28.95589824	     -4.39408439	    -12.63636572	     19.93266488	      0.34789063	    -28.64118512	     -7.42662659	     -5.85086156	    -23.15557502	     -3.48721527	     -4.69193351	     -5.27467959	    -20.82150375	    -18.33933739	    118.03194631	    104.26883022	     -1.28831911	    -21.47639099	      1.39895952	    117.80324131	    111.92406776
      1.02000000	    -10.42281356	      0.48877798	     -0.24839938	     -0.57797506	      1.39149022	     -0.57800189	     25.83491538	     -3.08192780	     -2.77928072	     12.39133280	      0.21626956	    -24.43384307	     -1.05223193	     -5.87872445	     28.78480509	     -4.55657953	    -13.53004988	     17.16595292	      0.29960240	    -29.94195600	     -6.71996151	     -5.87872445	    -23.10265522	     -3.87336850	     -4.23712363	     -6.76548365	    -21.91246968	    -19.43748770	    119.32252403	    104.43136048	     -1.96706081	    -22.31949759	      0.17574730	    119.29579904	    111.96289728
      1.03000000	    -10.78288565	      0.42009330	     -0.53439127	     -0.56671858	      1.38157199	     -0.57812687	     26.63832696	     -3.06913834	     -2.91839334	     11.21119572	      0.19567228	    -24.76517841	     -0.72105173	     -5.88996428	     28.89946239	     -4.84521271	    -14.16461128	     14.83926421	      0.25899402	    -30.02468227	     -6.46486003	     -5.88996428	    -22.58640090	     -3.93616537	     -3.93661072	     -8.34930632	    -23.26029024	    -20.26454685	    120.12169753	    104.46142185	     -2.89869725	    -23.30044481	     -0.80600372	    120.61398705	    111.96674371
      1.04000000	    -10.85392403	      0.54480510	     -0.79841064	     -0.55547393	      1.37108656	     -0.57835294	     27.09792285	     -3.24983331	     -2.76620504	     10.13142958	      0.17682680	    -25.60022507	     -0.05740551	     -5.91687737	     28.60247151	     -4.88766385	    -14.81953534	     12.31716080	      0.21497501	    -30.61569686	     -5.63799478	     -5.91687737	    -22.51342264	     -4.15925447	     -3.70457348	     -9.92336715	    -24.44379709	    -21.64343427	    121.37777220	    104.50713943	     -3.76311927	    -24.27309808	     -2.40059471	    122.29151838	    112.00754915
      1.05000000	    -10.97585141	      0.54201029	     -0.92290465	     -0.54401828	      1.35930606	     -0.57877150	     27.56037698	     -3.34909859	     -2.96135395	      9.24217678	      0.16130641	    -26.06734356	      0.32510105	     -5.94455178	     28.50171676	     -5.00036806	    -15.17206828	     10.15407756	      0.17722209	    -30.50163511	     -4.77692946	     -5.94455178	    -22.20704439	     -4.20387944	     -3.57120333	    -11.62737049	    -25.73305775	    -23.00685713	    122.45522867	    104.47175256	     -4.74962933	    -25.35279626	     -3.90918783	    123.99852542	    112.07576397
      1.06000000	    -11.05818003	      0.55849115	     -1.03910743	     -0.53238579	      1.34645253	     -0.57901590	     27.95775995	     -3.44144607	     -3.14650114	      8.51512037	      0.14861689	    -26.49614206	      0.32312270	     -5.93493922	     28.39057413	     -5.09828906	    -15.31274175	      8.14996974	      0.14224381	    -30.31566741	     -3.79536796	     -5.93493922	    -21.85632333	     -4.29495920	     -3.42463132	    -13.46902452	    -26.93596403	    -24.57864148	    123.52900131	    104.96356940	     -5.79807832	    -26.57651882	     -5.60709495	    125.73263636	    112.78939354
      1.07000000	    -11.02448792	      0.59866067	     -1.15604801	     -0.52056296	      1.33272404	     -0.57907176	     28.19850188	     -3.54581897	     -3.42644255	      7.92175145	      0.13826065	    -26.77463039	      0.39882623	     -5.98959394	     28.20589474	     -5.21518120	    -15.53376381	      6.36598579	      0.11110741	    -29.96891463	     -2.36792867	     -5.98959394	    -21.60173437	     -4.42459247	     -3.24596304	    -15.48442299	    -28.04302330	    -26.23613282	    124.81921909	    104.11507441	     -6.87969754	    -27.97244675	     -7.22790800	    127.79968385	    111.34804626
